# xmcd
#
# Track frame offsets: 
#        150
#        17825
#        40500
#        62170
#        78980
#        99705
#        115543
#        132878
#        147653
#        168303
#        194953
#        220528
#        235875
#        261550
#        278900
#        295200
#        311825
#
# Disc length: 4436 seconds
#
# Revision: 2
# Processed by: cddbd v1.5.2PL0 Copyright (c) Steve Scherf et al.
# Submitted via: ExactAudioCopy v1.3
#
DISCID=04115211
DTITLE=Various Artist - The Best Of Italo Dance Classics Vol.02
DYEAR=1994
DGENRE=Italo Disco
TTITLE0=Sabrina - Boys (Summertime Love)
TTITLE1=Peter Richard - Walking In The Neon
TTITLE2=Pino D'Angelo - Ma Quale Idea (Remix Version By A. Rosselli)
TTITLE3=Sandy Marton - People From Ibiza (Edit A)
TTITLE4=Creatures - Maybe One Day
TTITLE5=Meccano - Activate My Heart
TTITLE6=Belen Thomas - Panama
TTITLE7=Fun Fun - Happy Station (7'' Scratch Version)
TTITLE8=Chip Chip - Never Say Goodbye
TTITLE9=Radiorama - Aliens (Remix '89)
TTITLE10=Kano - Baby Not Tonight
TTITLE11=Fiction Lld. - Japanese Fiction
TTITLE12=Gary Low - La Colegiala
TTITLE13=Firefly - Love Is Gonna Be On Your Side
TTITLE14=Jimmy Ross - First True Love Affair
TTITLE15=BB and Band - That Special Magic (You Better Straighten Up Baby
TTITLE15=)
TTITLE16=Lee Marrow - Sayonara (Don't Stop)
EXTD=
EXTT0=
EXTT1=
EXTT2=
EXTT3=
EXTT4=
EXTT5=
EXTT6=
EXTT7=
EXTT8=
EXTT9=
EXTT10=
EXTT11=
EXTT12=
EXTT13=
EXTT14=
EXTT15=
EXTT16=
PLAYORDER=
